<svg width="971" height="970" viewBox="0 0 971 970" fill="none" xmlns="http://www.w3.org/2000/svg">
<path d="M910.746 160.463L958.043 184.346L942.1 295.941L914.2 391.6L913.675 393.401L914.464 395.103L958.373 489.829L942.084 632.98L908.217 744.042L907.229 747.281L909.872 749.401L958.601 788.48L965.686 955.699L847.237 911.811L844.527 910.807L842.304 912.655L788.408 957.455L652.403 917.701L650.912 917.265L649.436 917.751L528.613 957.534L453.238 912.215L450.35 910.479L447.656 912.503L378.258 964.679L232.28 937.217L88.6829 864.875L28.9408 719.196L56.4742 621.354L56.8099 620.161L56.5496 618.95L39.4683 539.45L39.3879 539.075L39.2514 538.718L15.324 476.005L39.5048 338.015L39.7987 336.338L39.0082 334.83L5.86171 271.605L56.0009 183.983L56.286 183.485L56.4508 182.935L88.8864 74.6669L213.279 20.9635L353.403 15.9945L353.595 15.9877L353.787 15.9661L450.661 5.03175L546.973 15.9026L638.621 48.115L639.15 48.3011L639.708 48.3652L718.929 57.4673L720.451 57.6422L721.81 56.9343L790.514 21.1402L893.012 32.7502L948.183 95.8262L908.876 153.173L905.645 157.887L910.746 160.463Z" stroke="black" stroke-width="10"/>
</svg>
